<svg width="21" height="21" viewBox="0 0 21 21" fill="none" xmlns="http://www.w3.org/2000/svg">
<path d="M18.7082 15.4833C18.7082 15.4666 18.6999 15.45 18.6999 15.4333C18.6915 15.3666 18.6832 15.3 18.6582 15.2416C18.6249 15.1666 18.5832 15.1083 18.5332 15.05C18.5332 15.05 18.5332 15.0416 18.5249 15.0416C18.4665 14.9833 18.3999 14.9416 18.3249 14.9083C18.2499 14.875 18.1665 14.8583 18.0832 14.8583L14.1915 14.875C14.1915 14.875 14.1915 14.875 14.1832 14.875C13.6832 14.875 13.1999 14.6416 12.8999 14.2416L11.8832 12.9333C11.6749 12.6583 11.2832 12.6083 11.0082 12.825C10.7332 13.0416 10.6832 13.425 10.8999 13.7L11.9165 15.0083C12.4582 15.7083 13.3082 16.125 14.1915 16.125H14.1999L16.5749 16.1166L15.9832 16.7083C15.7415 16.95 15.7415 17.35 15.9832 17.5916C16.1082 17.7166 16.2665 17.775 16.4249 17.775C16.5832 17.775 16.7415 17.7166 16.8665 17.5916L18.5332 15.925C18.5915 15.8666 18.6332 15.8 18.6665 15.725C18.6915 15.6416 18.7082 15.5583 18.7082 15.4833Z" fill="#121212"/>
<path d="M7.59992 6.07498C7.05825 5.32498 6.19159 4.88332 5.26659 4.88332C5.25825 4.88332 5.25825 4.88332 5.24992 4.88332L3.08325 4.89165C2.74159 4.89165 2.45825 5.17498 2.45825 5.51665C2.45825 5.85832 2.74159 6.14165 3.08325 6.14165L5.25825 6.13332H5.26659C5.79159 6.13332 6.28325 6.38332 6.58325 6.80832L7.48325 8.05832C7.60825 8.22498 7.79992 8.31665 7.99159 8.31665C8.11659 8.31665 8.24992 8.27498 8.35825 8.19998C8.64159 7.99165 8.69992 7.59998 8.49992 7.32498L7.59992 6.07498Z" fill="#121212"/>
<path d="M18.6999 5.56665C18.6999 5.54998 18.7083 5.53331 18.7083 5.52498C18.7083 5.44165 18.6916 5.35831 18.6583 5.28331C18.6249 5.20831 18.5833 5.14165 18.5249 5.08331L16.8583 3.41665C16.6166 3.17498 16.2166 3.17498 15.9749 3.41665C15.7333 3.65831 15.7333 4.05831 15.9749 4.29998L16.5666 4.89165L14.2916 4.88331C14.2833 4.88331 14.2833 4.88331 14.2749 4.88331C13.3166 4.88331 12.4166 5.35831 11.8833 6.16665L6.55825 14.15C6.25825 14.6 5.74992 14.875 5.20825 14.875H5.19992L3.08325 14.8583C2.74159 14.8583 2.45825 15.1333 2.45825 15.4833C2.45825 15.825 2.73325 16.1083 3.08325 16.1083L5.20825 16.1166C5.21659 16.1166 5.21659 16.1166 5.22492 16.1166C6.19159 16.1166 7.08325 15.6416 7.61658 14.8333L12.9416 6.84998C13.2416 6.39998 13.7499 6.12498 14.2916 6.12498H14.2999L18.0833 6.14165C18.1666 6.14165 18.2416 6.12498 18.3249 6.09165C18.3999 6.05831 18.4666 6.01665 18.5249 5.95831C18.5249 5.95831 18.5249 5.94998 18.5333 5.94998C18.5833 5.89165 18.6333 5.83331 18.6583 5.75831C18.6833 5.69998 18.6916 5.63331 18.6999 5.56665Z" fill="#121212"/>
</svg>
